<svg xmlns="http://www.w3.org/2000/svg" xmlns:xlink="http://www.w3.org/1999/xlink" width="800" zoomAndPan="magnify" viewBox="0 0 600 599.999999" height="800" preserveAspectRatio="xMidYMid meet" version="1.0"><defs><clipPath id="3f54a218d3"><path d="M 12.644531 14.941406 L 584.894531 14.941406 L 584.894531 587.191406 L 12.644531 587.191406 Z M 12.644531 14.941406 " clip-rule="nonzero"/></clipPath></defs><rect x="-60" width="720" fill="#ffffff" y="-60" height="719.999999" fill-opacity="1"/><rect x="-60" width="720" fill="#ffffff" y="-60" height="719.999999" fill-opacity="1"/><rect x="-60" width="720" fill="#ffffff" y="-60" height="719.999999" fill-opacity="1"/><g clip-path="url(#3f54a218d3)"><path fill="#7ed957" d="M 298.789062 37.441406 C 153.410156 37.441406 35.136719 155.71875 35.136719 301.089844 C 35.136719 446.46875 153.410156 564.742188 298.789062 564.742188 C 444.167969 564.742188 562.4375 446.46875 562.4375 301.089844 C 562.4375 155.71875 444.167969 37.441406 298.789062 37.441406 Z M 298.789062 587.234375 C 260.164062 587.234375 222.691406 579.667969 187.40625 564.746094 C 153.328125 550.335938 122.730469 529.699219 96.453125 503.425781 C 70.179688 477.148438 49.550781 446.550781 35.132812 412.472656 C 20.210938 377.191406 12.644531 339.714844 12.644531 301.089844 C 12.644531 262.464844 20.210938 224.992188 35.132812 189.710938 C 49.550781 155.632812 70.179688 125.03125 96.453125 98.757812 C 122.730469 72.480469 153.328125 51.851562 187.40625 37.441406 C 222.691406 22.515625 260.164062 14.945312 298.789062 14.945312 C 337.414062 14.945312 374.886719 22.515625 410.171875 37.441406 C 444.246094 51.851562 474.847656 72.480469 501.121094 98.757812 C 527.398438 125.03125 548.027344 155.632812 562.4375 189.710938 C 577.363281 224.992188 584.933594 262.464844 584.933594 301.089844 C 584.933594 339.714844 577.363281 377.191406 562.4375 412.472656 C 548.027344 446.550781 527.398438 477.148438 501.121094 503.425781 C 474.847656 529.699219 444.246094 550.335938 410.171875 564.746094 C 374.886719 579.667969 337.414062 587.234375 298.789062 587.234375 " fill-opacity="1" fill-rule="nonzero"/></g><path fill="#7ed957" d="M 464.65625 507.214844 C 432.9375 474.78125 409.484375 434.238281 397.734375 389.023438 C 409.941406 385.710938 421.949219 381.570312 433.703125 376.597656 C 441.679688 373.222656 449.464844 369.5 457.050781 365.441406 C 465.972656 392.050781 470.808594 420.515625 470.808594 450.09375 C 470.808594 469.695312 468.6875 488.808594 464.65625 507.214844 Z M 389.277344 322.605469 C 389.277344 302.710938 391.496094 283.316406 395.6875 264.664062 C 419.347656 289.125 438.390625 318.082031 451.378906 350.117188 C 433.445312 359.945312 414.277344 367.765625 394.160156 373.289062 C 390.960938 356.882812 389.277344 339.9375 389.277344 322.605469 Z M 367.855469 322.605469 C 367.855469 341.425781 369.660156 359.976562 373.238281 378.128906 C 357.140625 381.171875 340.539062 382.769531 323.570312 382.769531 C 280.476562 382.769531 239.730469 372.492188 203.664062 354.277344 C 206.257812 353.269531 208.84375 352.226562 211.410156 351.140625 C 244.945312 336.957031 275.058594 316.652344 300.917969 290.792969 C 320.167969 271.542969 336.335938 249.933594 349.195312 226.3125 C 359.199219 232.832031 368.738281 239.992188 377.757812 247.753906 C 371.179688 272 367.855469 297.050781 367.855469 322.605469 Z M 188.105469 345.636719 C 184.148438 326.019531 182.070312 305.738281 182.070312 284.972656 C 182.070312 249.339844 188.179688 215.109375 199.417969 183.273438 C 200.925781 183.246094 202.433594 183.230469 203.949219 183.230469 C 252.648438 183.230469 298.34375 196.34375 337.6875 219.230469 C 305.722656 278.101562 252.355469 323.742188 188.105469 345.636719 Z M 160.648438 284.972656 C 160.648438 299.945312 161.644531 314.765625 163.617188 329.390625 C 125.03125 300.40625 94.527344 261.222656 76.136719 215.878906 C 106.449219 199.273438 140.308594 188.378906 176.273438 184.65625 C 165.894531 216.925781 160.648438 250.546875 160.648438 284.972656 Z M 465.425781 341.855469 C 465.164062 341.222656 464.90625 340.59375 464.644531 339.960938 C 450.390625 306.269531 429.992188 276.015625 404.011719 250.03125 C 402.832031 248.855469 401.640625 247.6875 400.445312 246.53125 C 417.070312 191.34375 451.304688 143.714844 496.578125 110.183594 C 491.515625 104.941406 486.246094 99.898438 480.785156 95.070312 C 470.519531 102.882812 460.742188 111.417969 451.511719 120.648438 C 425.28125 146.878906 404.691406 177.417969 390.304688 211.429688 C 387.589844 217.855469 385.117188 224.351562 382.890625 230.914062 C 374.472656 224.023438 365.6875 217.640625 356.566406 211.789062 C 358.199219 208.324219 359.765625 204.828125 361.261719 201.289062 C 375.949219 166.566406 383.394531 129.6875 383.394531 91.675781 C 383.394531 73.441406 381.664062 55.464844 378.257812 37.859375 C 373.472656 36.417969 368.632812 35.101562 363.734375 33.914062 C 367.839844 52.527344 370.007812 71.851562 370.007812 91.675781 C 370.007812 132.054688 361.039062 170.371094 344.984375 204.753906 C 335.046875 199.03125 324.738281 193.90625 314.082031 189.398438 C 279.703125 174.859375 243.222656 167.390625 205.621094 167.171875 C 229.722656 109.519531 270.957031 60.742188 322.929688 27.242188 C 314.976562 26.550781 306.925781 26.195312 298.789062 26.195312 C 294.78125 26.195312 290.792969 26.285156 286.828125 26.453125 C 276.292969 34.691406 266.226562 43.597656 256.664062 53.160156 C 226.5625 83.265625 202.925781 118.324219 186.410156 157.363281 C 184.925781 160.882812 183.5 164.429688 182.136719 167.988281 C 151.644531 170.300781 122.023438 177.46875 93.816406 189.398438 C 85.835938 192.777344 78.050781 196.5 70.472656 200.554688 C 66.417969 188.472656 63.214844 176 60.921875 163.21875 C 56.710938 170.464844 52.820312 177.921875 49.269531 185.574219 C 51.253906 193.375 53.5625 201.097656 56.21875 208.726562 C 48.980469 213.160156 41.957031 217.921875 35.144531 222.992188 C 32.640625 231.460938 30.535156 240.101562 28.84375 248.886719 C 39.25 239.816406 50.363281 231.53125 62.089844 224.140625 C 62.351562 224.773438 62.609375 225.40625 62.878906 226.035156 C 77.128906 259.726562 97.527344 289.988281 123.507812 315.964844 C 136.980469 329.4375 151.605469 341.40625 167.257812 351.796875 C 146.304688 357.074219 124.375 359.878906 101.804688 359.878906 C 76.273438 359.878906 51.566406 356.289062 28.15625 349.597656 C 29.042969 354.566406 30.0625 359.488281 31.210938 364.355469 C 54.113281 370.277344 77.730469 373.269531 101.804688 373.269531 C 125.191406 373.269531 148.144531 370.449219 170.433594 364.855469 C 174.503906 381.089844 179.828125 397.023438 186.410156 412.582031 C 190.539062 422.335938 195.109375 431.84375 200.117188 441.089844 C 196.648438 440.964844 193.160156 440.898438 189.671875 440.898438 C 151.84375 440.898438 115.136719 448.3125 80.585938 462.925781 C 79.558594 463.359375 78.539062 463.796875 77.523438 464.242188 C 79.730469 467.226562 81.992188 470.171875 84.316406 473.0625 C 116.695312 459.261719 152.304688 451.609375 189.671875 451.609375 C 195.285156 451.609375 200.851562 451.785156 206.378906 452.128906 C 220.292969 475.589844 237.113281 497.234375 256.664062 516.78125 C 279.503906 539.625 305.191406 558.734375 333.308594 573.839844 C 345.378906 572.328125 357.203125 570.03125 368.734375 567.007812 C 313.671875 543.539062 266.828125 504.402344 233.839844 455.226562 C 302.011719 466.515625 361.621094 503.472656 402.390625 555.796875 C 405.851562 554.386719 409.277344 552.90625 412.667969 551.359375 C 405.074219 541.414062 396.796875 531.941406 387.84375 522.984375 C 362.105469 497.25 332.136719 477.039062 298.761719 462.925781 C 275.449219 453.0625 251.15625 446.492188 226.199219 443.25 C 211.957031 419.742188 200.789062 394.171875 193.25 367.105469 C 199.832031 370.519531 206.5625 373.6875 213.441406 376.597656 C 248.324219 391.351562 285.378906 398.835938 323.570312 398.835938 C 341.601562 398.835938 359.386719 397.164062 376.800781 393.851562 C 380.289062 407.425781 384.792969 420.753906 390.304688 433.78125 C 404.691406 467.792969 425.28125 498.339844 451.511719 524.5625 C 452.53125 525.582031 453.558594 526.597656 454.59375 527.597656 C 463.902344 521.183594 472.792969 514.210938 481.226562 506.734375 C 484.980469 488.230469 486.878906 469.304688 486.878906 450.09375 C 486.878906 418.15625 481.644531 387.015625 471.300781 357.273438 C 490.214844 345.679688 507.730469 331.871094 523.632812 315.964844 C 541.859375 297.738281 557.339844 277.398438 569.875 255.25 C 568.46875 246.871094 566.683594 238.621094 564.535156 230.519531 C 542.660156 276.328125 508.101562 314.964844 465.425781 341.855469 " fill-opacity="1" fill-rule="nonzero"/><path fill="#7ed957" d="M 494.253906 355.496094 C 494.253906 372.992188 480.070312 387.175781 462.574219 387.175781 C 445.078125 387.175781 430.898438 372.992188 430.898438 355.496094 C 430.898438 338.003906 445.078125 323.820312 462.574219 323.820312 C 480.070312 323.820312 494.253906 338.003906 494.253906 355.496094 " fill-opacity="1" fill-rule="nonzero"/><path fill="#7ed957" d="M 415.363281 245 C 415.363281 259.160156 403.886719 270.636719 389.726562 270.636719 C 375.570312 270.636719 364.089844 259.160156 364.089844 245 C 364.089844 230.847656 375.570312 219.367188 389.726562 219.367188 C 403.886719 219.367188 415.363281 230.847656 415.363281 245 " fill-opacity="1" fill-rule="nonzero"/><path fill="#7ed957" d="M 208.148438 350.039062 C 208.148438 367.644531 193.878906 381.917969 176.273438 381.917969 C 158.664062 381.917969 144.394531 367.644531 144.394531 350.039062 C 144.394531 332.433594 158.664062 318.160156 176.273438 318.160156 C 193.878906 318.160156 208.148438 332.433594 208.148438 350.039062 " fill-opacity="1" fill-rule="nonzero"/><path fill="#7ed957" d="M 212.023438 176.390625 C 212.023438 188.984375 201.8125 199.195312 189.21875 199.195312 C 176.625 199.195312 166.410156 188.984375 166.410156 176.390625 C 166.410156 163.792969 176.625 153.582031 189.21875 153.582031 C 201.8125 153.582031 212.023438 163.792969 212.023438 176.390625 " fill-opacity="1" fill-rule="nonzero"/><path fill="#7ed957" d="M 87.882812 212.183594 C 87.882812 224.78125 77.671875 234.992188 65.074219 234.992188 C 52.480469 234.992188 42.269531 224.78125 42.269531 212.183594 C 42.269531 199.589844 52.480469 189.378906 65.074219 189.378906 C 77.671875 189.378906 87.882812 199.589844 87.882812 212.183594 " fill-opacity="1" fill-rule="nonzero"/><path fill="#7ed957" d="M 364.183594 212.183594 C 364.183594 221 357.042969 228.140625 348.230469 228.140625 C 339.421875 228.140625 332.28125 221 332.28125 212.183594 C 332.28125 203.375 339.421875 196.234375 348.230469 196.234375 C 357.042969 196.234375 364.183594 203.375 364.183594 212.183594 " fill-opacity="1" fill-rule="nonzero"/></svg>