<svg xmlns="http://www.w3.org/2000/svg" xmlns:xlink="http://www.w3.org/1999/xlink" width="783" zoomAndPan="magnify" viewBox="0 0 587.25 269.25" height="359" preserveAspectRatio="xMidYMid meet" version="1.0"><defs><g/><clipPath id="7d63d7b76c"><path d="M 0.441406 0 L 586.058594 0 L 586.058594 268.503906 L 0.441406 268.503906 Z M 0.441406 0 " clip-rule="nonzero"/></clipPath><clipPath id="cc93868236"><path d="M 250.949219 68.449219 L 335.464844 68.449219 L 335.464844 152.964844 L 250.949219 152.964844 Z M 250.949219 68.449219 " clip-rule="nonzero"/></clipPath></defs><g clip-path="url(#7d63d7b76c)"><path fill="#ffffff" d="M 0.441406 0 L 586.808594 0 L 586.808594 275.980469 L 0.441406 275.980469 Z M 0.441406 0 " fill-opacity="1" fill-rule="nonzero"/><path fill="#ffffff" d="M 0.441406 0 L 586.058594 0 L 586.058594 268.503906 L 0.441406 268.503906 Z M 0.441406 0 " fill-opacity="1" fill-rule="nonzero"/><path fill="#ffffff" d="M 0.441406 0 L 586.058594 0 L 586.058594 268.503906 L 0.441406 268.503906 Z M 0.441406 0 " fill-opacity="1" fill-rule="nonzero"/></g><g clip-path="url(#cc93868236)"><path fill="#7ed957" d="M 293.210938 71.769531 C 271.738281 71.769531 254.269531 89.238281 254.269531 110.710938 C 254.269531 132.179688 271.738281 149.648438 293.210938 149.648438 C 314.679688 149.648438 332.148438 132.179688 332.148438 110.710938 C 332.148438 89.238281 314.679688 71.769531 293.210938 71.769531 Z M 293.210938 152.96875 C 287.503906 152.96875 281.96875 151.851562 276.757812 149.648438 C 271.726562 147.519531 267.207031 144.472656 263.328125 140.589844 C 259.445312 136.710938 256.398438 132.191406 254.269531 127.160156 C 252.066406 121.949219 250.949219 116.414062 250.949219 110.710938 C 250.949219 105.003906 252.066406 99.46875 254.269531 94.257812 C 256.398438 89.226562 259.445312 84.707031 263.328125 80.828125 C 267.207031 76.945312 271.726562 73.898438 276.757812 71.769531 C 281.96875 69.566406 287.503906 68.449219 293.210938 68.449219 C 298.914062 68.449219 304.449219 69.566406 309.660156 71.769531 C 314.691406 73.898438 319.210938 76.945312 323.089844 80.828125 C 326.972656 84.707031 330.019531 89.226562 332.148438 94.257812 C 334.351562 99.46875 335.46875 105.003906 335.46875 110.710938 C 335.46875 116.414062 334.351562 121.949219 332.148438 127.160156 C 330.019531 132.191406 326.972656 136.710938 323.089844 140.589844 C 319.210938 144.472656 314.691406 147.519531 309.660156 149.648438 C 304.449219 151.851562 298.914062 152.96875 293.210938 152.96875 " fill-opacity="1" fill-rule="nonzero"/></g><path fill="#7ed957" d="M 317.707031 141.152344 C 313.023438 136.359375 309.558594 130.375 307.824219 123.695312 C 309.625 123.207031 311.398438 122.59375 313.132812 121.859375 C 314.3125 121.363281 315.460938 120.8125 316.582031 120.210938 C 317.902344 124.144531 318.613281 128.347656 318.613281 132.714844 C 318.613281 135.609375 318.300781 138.433594 317.707031 141.152344 Z M 306.574219 113.886719 C 306.574219 110.949219 306.902344 108.082031 307.519531 105.328125 C 311.015625 108.941406 313.828125 113.21875 315.746094 117.949219 C 313.097656 119.402344 310.265625 120.554688 307.292969 121.371094 C 306.820312 118.949219 306.574219 116.445312 306.574219 113.886719 Z M 303.410156 113.886719 C 303.410156 116.667969 303.675781 119.40625 304.203125 122.085938 C 301.828125 122.535156 299.375 122.773438 296.871094 122.773438 C 290.503906 122.773438 284.488281 121.253906 279.160156 118.5625 C 279.542969 118.414062 279.925781 118.261719 280.304688 118.101562 C 285.257812 116.003906 289.703125 113.007812 293.523438 109.1875 C 296.367188 106.34375 298.753906 103.152344 300.652344 99.664062 C 302.132812 100.628906 303.539062 101.6875 304.871094 102.832031 C 303.902344 106.414062 303.410156 110.113281 303.410156 113.886719 Z M 276.863281 117.289062 C 276.277344 114.390625 275.972656 111.394531 275.972656 108.328125 C 275.972656 103.066406 276.875 98.011719 278.535156 93.308594 C 278.757812 93.304688 278.980469 93.300781 279.203125 93.300781 C 286.394531 93.300781 293.144531 95.238281 298.953125 98.617188 C 294.234375 107.3125 286.351562 114.054688 276.863281 117.289062 Z M 272.808594 108.328125 C 272.808594 110.539062 272.953125 112.730469 273.246094 114.890625 C 267.546875 110.609375 263.042969 104.820312 260.328125 98.125 C 264.804688 95.671875 269.804688 94.0625 275.113281 93.511719 C 273.582031 98.277344 272.808594 103.246094 272.808594 108.328125 Z M 317.820312 116.730469 C 317.78125 116.636719 317.742188 116.542969 317.703125 116.449219 C 315.597656 111.472656 312.585938 107.003906 308.75 103.167969 C 308.574219 102.996094 308.398438 102.824219 308.222656 102.652344 C 310.679688 94.5 315.734375 87.464844 322.421875 82.515625 C 321.671875 81.738281 320.894531 80.996094 320.089844 80.28125 C 318.570312 81.4375 317.128906 82.695312 315.765625 84.058594 C 311.890625 87.933594 308.851562 92.445312 306.726562 97.46875 C 306.324219 98.417969 305.960938 99.375 305.628906 100.34375 C 304.386719 99.328125 303.089844 98.382812 301.742188 97.519531 C 301.984375 97.007812 302.214844 96.492188 302.4375 95.96875 C 304.605469 90.839844 305.703125 85.394531 305.703125 79.78125 C 305.703125 77.085938 305.449219 74.433594 304.945312 71.832031 C 304.238281 71.621094 303.523438 71.425781 302.800781 71.25 C 303.40625 74 303.726562 76.851562 303.726562 79.78125 C 303.726562 85.746094 302.402344 91.402344 300.03125 96.480469 C 298.5625 95.636719 297.042969 94.878906 295.46875 94.214844 C 290.390625 92.066406 285.003906 90.964844 279.449219 90.929688 C 283.007812 82.417969 289.097656 75.210938 296.773438 70.265625 C 295.601562 70.164062 294.410156 70.109375 293.210938 70.109375 C 292.617188 70.109375 292.027344 70.125 291.441406 70.148438 C 289.886719 71.363281 288.402344 72.679688 286.988281 74.09375 C 282.542969 78.539062 279.050781 83.714844 276.613281 89.480469 C 276.394531 90.003906 276.183594 90.527344 275.980469 91.050781 C 271.476562 91.394531 267.101562 92.453125 262.9375 94.214844 C 261.757812 94.710938 260.609375 95.261719 259.488281 95.859375 C 258.890625 94.078125 258.417969 92.234375 258.078125 90.347656 C 257.457031 91.417969 256.882812 92.519531 256.359375 93.648438 C 256.652344 94.800781 256.992188 95.941406 257.386719 97.066406 C 256.316406 97.722656 255.277344 98.425781 254.273438 99.175781 C 253.902344 100.425781 253.589844 101.703125 253.339844 103 C 254.878906 101.660156 256.519531 100.4375 258.25 99.34375 C 258.289062 99.4375 258.328125 99.53125 258.367188 99.625 C 260.472656 104.601562 263.484375 109.070312 267.324219 112.90625 C 269.3125 114.894531 271.472656 116.664062 273.785156 118.199219 C 270.6875 118.976562 267.449219 119.390625 264.117188 119.390625 C 260.347656 119.390625 256.699219 118.859375 253.242188 117.871094 C 253.371094 118.605469 253.523438 119.332031 253.691406 120.054688 C 257.074219 120.925781 260.5625 121.367188 264.117188 121.367188 C 267.570312 121.367188 270.960938 120.953125 274.253906 120.125 C 274.855469 122.523438 275.640625 124.878906 276.613281 127.175781 C 277.222656 128.617188 277.898438 130.019531 278.636719 131.386719 C 278.125 131.367188 277.609375 131.355469 277.09375 131.355469 C 271.507812 131.355469 266.085938 132.453125 260.984375 134.609375 C 260.832031 134.675781 260.679688 134.738281 260.53125 134.804688 C 260.855469 135.246094 261.191406 135.679688 261.535156 136.105469 C 266.316406 134.070312 271.574219 132.9375 277.09375 132.9375 C 277.921875 132.9375 278.746094 132.964844 279.5625 133.015625 C 281.617188 136.480469 284.101562 139.675781 286.988281 142.5625 C 290.363281 145.9375 294.15625 148.757812 298.308594 150.992188 C 300.089844 150.765625 301.835938 150.429688 303.539062 149.980469 C 295.40625 146.515625 288.488281 140.734375 283.617188 133.472656 C 293.683594 135.140625 302.488281 140.597656 308.511719 148.328125 C 309.019531 148.117188 309.527344 147.898438 310.027344 147.671875 C 308.90625 146.203125 307.683594 144.804688 306.363281 143.480469 C 302.5625 139.679688 298.132812 136.695312 293.207031 134.609375 C 289.761719 133.152344 286.175781 132.183594 282.488281 131.703125 C 280.386719 128.230469 278.734375 124.457031 277.621094 120.457031 C 278.59375 120.960938 279.589844 121.429688 280.605469 121.859375 C 285.757812 124.039062 291.230469 125.144531 296.871094 125.144531 C 299.53125 125.144531 302.160156 124.898438 304.730469 124.410156 C 305.246094 126.414062 305.910156 128.382812 306.726562 130.304688 C 308.851562 135.328125 311.890625 139.839844 315.765625 143.714844 C 315.914062 143.863281 316.066406 144.011719 316.21875 144.160156 C 317.59375 143.214844 318.90625 142.183594 320.152344 141.078125 C 320.707031 138.347656 320.988281 135.550781 320.988281 132.714844 C 320.988281 128 320.214844 123.398438 318.6875 119.007812 C 321.480469 117.292969 324.066406 115.253906 326.417969 112.90625 C 329.109375 110.214844 331.394531 107.210938 333.246094 103.9375 C 333.039062 102.703125 332.773438 101.484375 332.457031 100.285156 C 329.226562 107.050781 324.121094 112.757812 317.820312 116.730469 " fill-opacity="1" fill-rule="nonzero"/><path fill="#7ed957" d="M 322.078125 118.746094 C 322.078125 121.328125 319.980469 123.421875 317.398438 123.421875 C 314.816406 123.421875 312.71875 121.328125 312.71875 118.746094 C 312.71875 116.160156 314.816406 114.066406 317.398438 114.066406 C 319.980469 114.066406 322.078125 116.160156 322.078125 118.746094 " fill-opacity="1" fill-rule="nonzero"/><path fill="#7ed957" d="M 310.425781 102.425781 C 310.425781 104.515625 308.730469 106.210938 306.640625 106.210938 C 304.550781 106.210938 302.855469 104.515625 302.855469 102.425781 C 302.855469 100.335938 304.550781 98.640625 306.640625 98.640625 C 308.730469 98.640625 310.425781 100.335938 310.425781 102.425781 " fill-opacity="1" fill-rule="nonzero"/><path fill="#7ed957" d="M 279.824219 117.9375 C 279.824219 120.539062 277.714844 122.644531 275.113281 122.644531 C 272.515625 122.644531 270.40625 120.539062 270.40625 117.9375 C 270.40625 115.335938 272.515625 113.230469 275.113281 113.230469 C 277.714844 113.230469 279.824219 115.335938 279.824219 117.9375 " fill-opacity="1" fill-rule="nonzero"/><path fill="#7ed957" d="M 280.394531 92.292969 C 280.394531 94.152344 278.886719 95.660156 277.027344 95.660156 C 275.167969 95.660156 273.660156 94.152344 273.660156 92.292969 C 273.660156 90.433594 275.167969 88.925781 277.027344 88.925781 C 278.886719 88.925781 280.394531 90.433594 280.394531 92.292969 " fill-opacity="1" fill-rule="nonzero"/><path fill="#7ed957" d="M 262.0625 97.578125 C 262.0625 99.4375 260.554688 100.945312 258.691406 100.945312 C 256.832031 100.945312 255.324219 99.4375 255.324219 97.578125 C 255.324219 95.71875 256.832031 94.210938 258.691406 94.210938 C 260.554688 94.210938 262.0625 95.71875 262.0625 97.578125 " fill-opacity="1" fill-rule="nonzero"/><path fill="#7ed957" d="M 302.867188 97.578125 C 302.867188 98.878906 301.8125 99.933594 300.511719 99.933594 C 299.210938 99.933594 298.15625 98.878906 298.15625 97.578125 C 298.15625 96.277344 299.210938 95.222656 300.511719 95.222656 C 301.8125 95.222656 302.867188 96.277344 302.867188 97.578125 " fill-opacity="1" fill-rule="nonzero"/><g fill="#000000" fill-opacity="1"><g transform="translate(248.864283, 180.078281)"><g><path d="M 1.40625 -14.03125 L 7.4375 -14.03125 C 9.644531 -14.03125 11.4375 -13.378906 12.8125 -12.078125 C 14.195312 -10.785156 14.890625 -9.097656 14.890625 -7.015625 C 14.890625 -4.941406 14.1875 -3.253906 12.78125 -1.953125 C 11.382812 -0.648438 9.554688 0 7.296875 0 L 1.40625 0 Z M 4.96875 -11.1875 L 4.96875 -2.84375 L 7.515625 -2.84375 C 8.609375 -2.84375 9.503906 -3.226562 10.203125 -4 C 10.910156 -4.769531 11.265625 -5.769531 11.265625 -7 C 11.265625 -8.226562 10.894531 -9.234375 10.15625 -10.015625 C 9.425781 -10.796875 8.492188 -11.1875 7.359375 -11.1875 Z M 4.96875 -11.1875 "/></g></g></g><g fill="#000000" fill-opacity="1"><g transform="translate(264.239125, 180.078281)"><g><path d="M 12.390625 -11.21875 L 4.96875 -11.21875 L 4.96875 -8.4375 L 11.671875 -8.4375 L 11.671875 -5.640625 L 4.96875 -5.640625 L 4.96875 -2.8125 L 12.609375 -2.8125 L 12.609375 0 L 1.40625 0 L 1.40625 -14.03125 L 12.390625 -14.03125 Z M 12.390625 -11.21875 "/></g></g></g><g fill="#000000" fill-opacity="1"><g transform="translate(277.749742, 180.078281)"><g><path d="M 1.40625 -14.03125 L 7.515625 -14.03125 C 9.304688 -14.03125 10.695312 -13.601562 11.6875 -12.75 C 12.675781 -11.90625 13.171875 -10.703125 13.171875 -9.140625 C 13.171875 -7.492188 12.675781 -6.21875 11.6875 -5.3125 C 10.695312 -4.40625 9.304688 -3.953125 7.515625 -3.953125 L 4.96875 -3.953125 L 4.96875 0 L 1.40625 0 Z M 4.96875 -11.21875 L 4.96875 -6.75 L 7.34375 -6.75 C 8.125 -6.75 8.726562 -6.941406 9.15625 -7.328125 C 9.582031 -7.722656 9.796875 -8.285156 9.796875 -9.015625 C 9.796875 -9.742188 9.582031 -10.289062 9.15625 -10.65625 C 8.726562 -11.03125 8.125 -11.21875 7.34375 -11.21875 Z M 4.96875 -11.21875 "/></g></g></g><g fill="#000000" fill-opacity="1"><g transform="translate(291.380632, 180.078281)"><g><path d="M 9.859375 0 L 7.78125 -3.953125 L 4.96875 -3.953125 L 4.96875 0 L 1.40625 0 L 1.40625 -14.03125 L 7.671875 -14.03125 C 9.535156 -14.03125 10.972656 -13.601562 11.984375 -12.75 C 13.003906 -11.90625 13.515625 -10.703125 13.515625 -9.140625 C 13.515625 -6.972656 12.664062 -5.46875 10.96875 -4.625 L 13.90625 0 Z M 4.96875 -6.75 L 7.671875 -6.75 C 8.453125 -6.75 9.054688 -6.941406 9.484375 -7.328125 C 9.910156 -7.722656 10.125 -8.285156 10.125 -9.015625 C 10.125 -9.742188 9.910156 -10.289062 9.484375 -10.65625 C 9.054688 -11.03125 8.453125 -11.21875 7.671875 -11.21875 L 4.96875 -11.21875 Z M 4.96875 -6.75 "/></g></g></g><g fill="#000000" fill-opacity="1"><g transform="translate(305.893518, 180.078281)"><g><path d="M 12.390625 -11.21875 L 4.96875 -11.21875 L 4.96875 -8.4375 L 11.671875 -8.4375 L 11.671875 -5.640625 L 4.96875 -5.640625 L 4.96875 -2.8125 L 12.609375 -2.8125 L 12.609375 0 L 1.40625 0 L 1.40625 -14.03125 L 12.390625 -14.03125 Z M 12.390625 -11.21875 "/></g></g></g><g fill="#000000" fill-opacity="1"><g transform="translate(319.404136, 180.078281)"><g><path d="M 16.8125 0 L 13.671875 0 L 13.65625 -9.125 L 10.28125 -1.40625 L 7.953125 -1.40625 L 4.59375 -9.125 L 4.59375 0 L 1.40625 0 L 1.40625 -14.046875 L 5.3125 -14.046875 L 9.125 -5.6875 L 12.9375 -14.046875 L 16.8125 -14.046875 Z M 16.8125 0 "/></g></g></g><g fill="#000000" fill-opacity="1"><g transform="translate(273.990488, 195.18601)"><g><path d="M 6.921875 -6.375 L 4.515625 -6.375 L 4.515625 0 L 2.46875 0 L 2.46875 -6.375 L 0.078125 -6.375 L 0.078125 -8.03125 L 6.921875 -8.03125 Z M 6.921875 -6.375 "/></g></g></g><g fill="#000000" fill-opacity="1"><g transform="translate(283.279693, 195.18601)"><g><path d="M 7.078125 -6.40625 L 2.84375 -6.40625 L 2.84375 -4.828125 L 6.671875 -4.828125 L 6.671875 -3.21875 L 2.84375 -3.21875 L 2.84375 -1.609375 L 7.203125 -1.609375 L 7.203125 0 L 0.796875 0 L 0.796875 -8.015625 L 7.078125 -8.015625 Z M 7.078125 -6.40625 "/></g></g></g><g fill="#000000" fill-opacity="1"><g transform="translate(293.290456, 195.18601)"><g><path d="M 4.5625 -8.078125 C 5.15625 -8.078125 5.738281 -7.957031 6.3125 -7.71875 C 6.894531 -7.476562 7.382812 -7.148438 7.78125 -6.734375 L 6.609375 -5.34375 C 6.347656 -5.65625 6.035156 -5.90625 5.671875 -6.09375 C 5.304688 -6.28125 4.945312 -6.375 4.59375 -6.375 C 3.957031 -6.375 3.425781 -6.148438 3 -5.703125 C 2.570312 -5.265625 2.359375 -4.710938 2.359375 -4.046875 C 2.359375 -3.378906 2.570312 -2.816406 3 -2.359375 C 3.425781 -1.910156 3.957031 -1.6875 4.59375 -1.6875 C 4.925781 -1.6875 5.273438 -1.769531 5.640625 -1.9375 C 6.003906 -2.113281 6.328125 -2.347656 6.609375 -2.640625 L 7.796875 -1.375 C 7.359375 -0.925781 6.84375 -0.566406 6.25 -0.296875 C 5.664062 -0.0351562 5.078125 0.09375 4.484375 0.09375 C 3.285156 0.09375 2.285156 -0.296875 1.484375 -1.078125 C 0.679688 -1.867188 0.28125 -2.851562 0.28125 -4.03125 C 0.28125 -5.1875 0.6875 -6.148438 1.5 -6.921875 C 2.3125 -7.691406 3.332031 -8.078125 4.5625 -8.078125 Z M 4.5625 -8.078125 "/></g></g></g><g fill="#000000" fill-opacity="1"><g transform="translate(303.507381, 195.18601)"><g><path d="M 8.203125 0 L 6.15625 0 L 6.15625 -3.109375 L 2.84375 -3.109375 L 2.84375 0 L 0.796875 0 L 0.796875 -8.015625 L 2.84375 -8.015625 L 2.84375 -4.71875 L 6.15625 -4.71875 L 6.15625 -8.015625 L 8.203125 -8.015625 Z M 8.203125 0 "/></g></g></g></svg>