<svg xmlns="http://www.w3.org/2000/svg" xmlns:xlink="http://www.w3.org/1999/xlink" width="250" zoomAndPan="magnify" viewBox="0 0 187.5 112.499997" height="150" preserveAspectRatio="xMidYMid meet" version="1.0"><defs><g/><clipPath id="477c18bfd2"><path d="M 73.398438 23.601562 L 113.828125 23.601562 L 113.828125 64.03125 L 73.398438 64.03125 Z M 73.398438 23.601562 " clip-rule="nonzero"/></clipPath></defs><path fill="#24a6f1" d="M 95.097656 37.910156 C 95.152344 37.53125 95.078125 37.015625 94.921875 36.652344 C 94.226562 35.066406 91.9375 34.765625 91.214844 37.148438 C 89.597656 37.074219 88.027344 36.929688 86.566406 36.722656 C 86.269531 34.246094 86.472656 33.042969 86.707031 31.648438 C 85.363281 31.382812 84.199219 31.039062 83.3125 30.625 C 84.21875 29.484375 84.195312 29.152344 84.035156 28.960938 C 83.015625 28.652344 80.695312 30.835938 80.730469 31.777344 C 80.738281 32.042969 81.15625 32.742188 82.917969 31.054688 C 83.792969 31.464844 84.925781 31.804688 86.234375 32.074219 C 85.824219 34.15625 85.960938 35.585938 86.121094 37.238281 C 87.699219 37.472656 89.402344 37.636719 91.160156 37.714844 C 91.195312 38.011719 91.246094 38.414062 91.492188 38.792969 C 92.503906 40.335938 94.828125 39.765625 95.097656 37.910156 " fill-opacity="1" fill-rule="nonzero"/><path fill="#24a6f1" d="M 90.6875 34.128906 C 92.167969 34.222656 93.707031 34.25 95.242188 34.207031 C 95.957031 32.050781 96.0625 31.082031 96.179688 29.6875 C 96.75 29.644531 97.3125 29.585938 97.863281 29.511719 C 98.480469 29.429688 99.046875 29.328125 99.566406 29.21875 C 100.46875 30.140625 101.066406 30.339844 101.410156 30.347656 C 102.039062 30.355469 102.121094 29.722656 101.296875 28.855469 C 100.71875 28.25 99.488281 27.433594 98.792969 27.484375 C 98.601562 27.59375 98.523438 27.832031 99.238281 28.828125 C 98.75 28.933594 98.214844 29.027344 97.632812 29.105469 C 97.054688 29.183594 96.460938 29.242188 95.859375 29.28125 C 95.78125 30.984375 95.382812 32.238281 94.921875 33.691406 C 93.523438 33.722656 92.128906 33.695312 90.78125 33.609375 C 90.785156 32.40625 90.269531 32.039062 89.960938 31.929688 C 88.640625 31.449219 86.972656 33.628906 87.613281 35 C 88.03125 35.894531 89.898438 36.261719 90.6875 34.128906 " fill-opacity="1" fill-rule="nonzero"/><path fill="#24a6f1" d="M 96.140625 42.183594 C 98.023438 42.113281 99.902344 41.960938 101.703125 41.71875 C 101.714844 41.71875 101.726562 41.71875 101.742188 41.714844 C 101.851562 42.011719 102 42.417969 102.34375 42.765625 C 103.703125 44.140625 105.71875 43.160156 105.613281 41.171875 C 105.613281 41.144531 105.386719 38.746094 103.214844 38.890625 C 102.191406 39.191406 101.707031 39.878906 101.648438 41.117188 C 101.636719 41.117188 101.625 41.121094 101.613281 41.121094 C 99.714844 41.375 97.730469 41.53125 95.742188 41.589844 C 94.824219 43.671875 93.929688 45.441406 92.980469 47.3125 C 90.503906 47.28125 88.078125 47.117188 85.832031 46.835938 C 85.511719 44.9375 84.269531 44.589844 83.894531 44.53125 C 82.082031 44.238281 81.109375 46.542969 82.339844 48.214844 C 83.285156 49.5 85.304688 49.679688 85.816406 47.453125 C 88.183594 47.75 90.757812 47.914062 93.371094 47.933594 C 94.941406 44.84375 95.316406 44.007812 96.140625 42.183594 " fill-opacity="1" fill-rule="nonzero"/><path fill="#24a6f1" d="M 99.699219 53.246094 C 98.425781 53.460938 97.6875 54.015625 97.308594 55.042969 C 95.324219 55.152344 93.3125 55.167969 91.359375 55.09375 C 90.183594 57.226562 89.941406 57.789062 89.503906 58.8125 C 87.644531 58.660156 85.890625 58.414062 84.347656 58.078125 C 83.152344 56.582031 81.957031 56.316406 81.679688 56.390625 C 80.78125 56.640625 82.488281 58.535156 83.890625 59.117188 C 84.179688 59.238281 85.089844 59.542969 84.578125 58.4375 C 86.160156 58.78125 87.972656 59.035156 89.894531 59.175781 C 90.378906 58.023438 90.980469 56.945312 91.742188 55.578125 C 93.5625 55.636719 95.421875 55.617188 97.257812 55.515625 C 97.277344 55.605469 97.285156 55.730469 97.3125 55.816406 C 97.789062 57.402344 100.660156 57 101.464844 55.238281 C 101.703125 54.714844 101.890625 53.222656 99.699219 53.246094 " fill-opacity="1" fill-rule="nonzero"/><g clip-path="url(#477c18bfd2)"><path fill="#24a6f1" d="M 111.808594 48.121094 C 111.230469 48.632812 110.375 49.121094 109.261719 49.566406 C 109.265625 48.4375 108.878906 48.007812 108.003906 48.167969 C 106.285156 48.917969 105.804688 51.027344 106.195312 51.886719 C 106.683594 52.964844 108.402344 52.480469 109.164062 50.128906 C 110.246094 49.699219 111.082031 49.226562 111.65625 48.726562 C 111.480469 49.371094 111.273438 50 111.03125 50.613281 C 111.007812 50.445312 110.902344 50.359375 110.644531 50.472656 C 110.085938 50.898438 109.597656 51.597656 109.058594 52.738281 C 107.820312 53.3125 106.15625 53.820312 104.109375 54.226562 C 102.625 56.324219 101.5625 57.402344 100.4375 58.546875 C 100.398438 58.550781 100.359375 58.558594 100.324219 58.5625 C 98.851562 58.761719 97.320312 58.886719 95.78125 58.945312 C 95.746094 58.742188 95.660156 58.273438 94.976562 57.972656 C 93.625 57.378906 91.644531 58.144531 92.144531 59.382812 C 92.574219 60.4375 94.972656 60.8125 95.730469 59.285156 C 97.230469 59.226562 98.722656 59.105469 100.15625 58.914062 C 100.289062 58.894531 100.421875 58.875 100.554688 58.855469 C 102.339844 57.179688 103.234375 56.007812 104.273438 54.648438 C 106.15625 54.257812 107.699219 53.777344 108.855469 53.238281 C 108.59375 54.070312 108.648438 54.152344 108.789062 54.367188 C 108.90625 54.363281 109.039062 54.296875 109.171875 54.191406 C 105.816406 59.207031 100.101562 62.515625 93.613281 62.515625 C 84.90625 62.515625 77.585938 56.558594 75.507812 48.5 C 75.730469 48.71875 76.003906 48.9375 76.339844 49.152344 C 77.328125 51.738281 78.320312 53.160156 79.371094 54.667969 C 80.65625 55.234375 82.320312 55.703125 84.226562 56.058594 C 84.332031 56.242188 84.484375 56.488281 84.625 56.648438 C 85.851562 58.039062 87.863281 58.0625 87.890625 56.6875 C 87.898438 56.265625 87.632812 55.609375 87.03125 55.089844 C 85.984375 54.191406 83.910156 53.863281 84.070312 55.613281 C 82.230469 55.265625 80.613281 54.820312 79.335938 54.285156 C 77.683594 51.933594 77.089844 50.429688 76.398438 48.683594 C 75.972656 48.425781 75.632812 48.160156 75.367188 47.894531 C 75.074219 46.582031 74.914062 45.21875 74.914062 43.816406 C 74.914062 43.75 74.921875 43.679688 74.921875 43.613281 C 75.0625 43.421875 75.191406 43.011719 75.332031 42.328125 C 75.632812 42.617188 76.027344 42.902344 76.519531 43.179688 C 77.1875 43.558594 78 43.910156 78.925781 44.222656 C 79.519531 47.066406 80.210938 48.609375 81.007812 50.394531 C 82.589844 50.789062 84.382812 51.105469 86.304688 51.332031 C 86.371094 51.558594 86.472656 51.867188 86.597656 52.070312 C 87.6875 53.855469 90.335938 53.703125 90.703125 51.832031 C 90.8125 51.277344 90.675781 50.691406 90.320312 50.179688 C 89.285156 48.691406 86.679688 48.476562 86.265625 50.765625 C 84.453125 50.550781 82.753906 50.257812 81.242188 49.898438 C 80.113281 47.414062 79.722656 45.832031 79.253906 43.699219 C 78.226562 43.367188 77.328125 42.992188 76.601562 42.578125 C 76.113281 42.300781 75.722656 42.015625 75.417969 41.730469 C 75.519531 40.722656 75.519531 40.007812 75.417969 39.515625 C 75.53125 39.03125 75.664062 38.550781 75.816406 38.082031 C 76.007812 38.359375 76.28125 38.640625 76.652344 38.914062 C 76.554688 39.351562 76.390625 40.089844 76.632812 40.777344 C 77.042969 41.953125 78.167969 41.65625 78.785156 40.210938 C 78.792969 40.1875 79.679688 38.003906 78.519531 37.113281 C 77.890625 36.90625 77.375 37.285156 76.847656 38.347656 C 76.476562 38.070312 76.199219 37.789062 76.007812 37.507812 C 76.167969 37.070312 76.34375 36.640625 76.53125 36.21875 C 76.535156 36.234375 76.535156 36.253906 76.539062 36.269531 C 76.542969 36.277344 76.777344 37.203125 78.074219 35.28125 C 78.292969 35.453125 78.546875 35.625 78.84375 35.792969 C 79.355469 36.082031 79.964844 36.351562 80.652344 36.601562 C 80.363281 39.089844 80.597656 40.679688 80.863281 42.519531 C 82.730469 43.011719 84.921875 43.386719 87.285156 43.628906 C 87.324219 43.945312 87.378906 44.378906 87.652344 44.800781 C 88.738281 46.472656 91.210938 46.027344 91.664062 44.078125 C 91.851562 43.265625 91.570312 42.628906 91.382812 42.320312 C 90.511719 40.863281 88.089844 40.65625 87.339844 43.019531 C 85.113281 42.789062 83.042969 42.441406 81.257812 41.992188 C 80.8125 39.234375 80.953125 37.796875 81.113281 36.132812 C 80.351562 35.871094 79.683594 35.582031 79.128906 35.265625 C 78.839844 35.101562 78.585938 34.933594 78.375 34.765625 C 79.078125 33.355469 79.042969 32.886719 78.933594 32.632812 C 78.902344 32.613281 78.867188 32.574219 78.832031 32.5625 C 78.785156 32.550781 78.738281 32.550781 78.683594 32.5625 C 79.785156 31.101562 81.09375 29.8125 82.566406 28.734375 C 83.21875 28.347656 83.84375 28.019531 84.484375 27.683594 C 84.640625 27.890625 84.894531 28.09375 85.242188 28.292969 C 85.464844 28.417969 85.722656 28.539062 86.003906 28.652344 C 85.785156 28.875 85.269531 29.398438 85.265625 29.835938 C 85.257812 30.457031 86.273438 30.429688 87.488281 29.234375 C 87.5 29.21875 88.9375 27.734375 88.457031 27.414062 C 88.152344 27.382812 87.554688 27.511719 86.433594 28.292969 C 86.167969 28.1875 85.925781 28.074219 85.714844 27.953125 C 85.359375 27.75 85.109375 27.539062 84.964844 27.328125 C 84.546875 27.523438 84.167969 27.707031 83.824219 27.886719 C 86.671875 26.132812 90.023438 25.117188 93.613281 25.117188 C 100.1875 25.117188 105.964844 28.511719 109.296875 33.640625 C 109.074219 33.96875 108.71875 34.289062 108.234375 34.59375 C 106.59375 32.832031 105.316406 31.808594 103.964844 30.722656 C 103.089844 31.105469 101.929688 31.445312 100.511719 31.710938 C 99.640625 30.546875 98.925781 30.425781 98.460938 30.433594 C 98.390625 30.453125 98.292969 30.46875 98.226562 30.5 C 97.269531 30.9375 97.566406 33.070312 98.96875 33.828125 C 99.929688 34.347656 101.382812 34 100.769531 32.183594 C 102.164062 31.921875 103.320312 31.59375 104.210938 31.21875 C 106.332031 32.957031 107.246094 33.941406 108.402344 35.191406 C 108.960938 34.859375 109.367188 34.507812 109.617188 34.144531 C 109.925781 34.652344 110.210938 35.175781 110.46875 35.710938 C 110.449219 36.148438 110.582031 36.785156 110.878906 37.710938 C 110.222656 38.351562 109.105469 38.953125 107.574219 39.476562 C 107.53125 42.101562 107.105469 43.730469 106.613281 45.609375 C 105.304688 45.9375 103.808594 46.222656 102.140625 46.445312 C 101.894531 46.480469 101.644531 46.511719 101.394531 46.539062 C 101.007812 45.125 100.003906 44.820312 99.441406 44.765625 C 97.378906 44.558594 95.957031 46.867188 97.136719 48.503906 C 98.164062 49.933594 100.890625 49.710938 101.410156 47.15625 C 101.660156 47.125 101.910156 47.09375 102.160156 47.0625 C 103.957031 46.820312 105.554688 46.511719 106.933594 46.148438 C 107.78125 43.3125 107.871094 41.765625 107.972656 39.976562 C 109.40625 39.464844 110.457031 38.886719 111.089844 38.269531 C 111.21875 38.558594 111.523438 39.246094 111.808594 39.507812 C 111.9375 40.066406 112.046875 40.640625 112.128906 41.21875 C 111.964844 41.410156 111.765625 41.597656 111.523438 41.78125 C 111.203125 40.644531 110.796875 40.230469 110.203125 40.433594 C 109.027344 41.359375 109.359375 44.230469 110.222656 44.875 C 110.847656 45.347656 111.726562 44.589844 111.621094 42.378906 C 111.851562 42.199219 112.042969 42.019531 112.207031 41.835938 C 112.277344 42.488281 112.3125 43.148438 112.3125 43.816406 C 112.3125 45.296875 112.132812 46.738281 111.808594 48.121094 Z M 93.613281 23.601562 C 82.449219 23.601562 73.398438 32.652344 73.398438 43.816406 C 73.398438 54.980469 82.449219 64.03125 93.613281 64.03125 C 104.777344 64.03125 113.828125 54.980469 113.828125 43.816406 C 113.828125 32.652344 104.777344 23.601562 93.613281 23.601562 " fill-opacity="1" fill-rule="nonzero"/></g><g fill="#ffffff" fill-opacity="1"><g transform="translate(69.231259, 79.433313)"><g><path d="M 0.734375 -7.34375 L 3.890625 -7.34375 C 5.046875 -7.34375 5.984375 -7.003906 6.703125 -6.328125 C 7.429688 -5.648438 7.796875 -4.765625 7.796875 -3.671875 C 7.796875 -2.585938 7.425781 -1.703125 6.6875 -1.015625 C 5.957031 -0.335938 5 0 3.8125 0 L 0.734375 0 Z M 2.59375 -5.84375 L 2.59375 -1.484375 L 3.9375 -1.484375 C 4.507812 -1.484375 4.976562 -1.679688 5.34375 -2.078125 C 5.707031 -2.484375 5.890625 -3.007812 5.890625 -3.65625 C 5.890625 -4.300781 5.695312 -4.828125 5.3125 -5.234375 C 4.925781 -5.640625 4.4375 -5.84375 3.84375 -5.84375 Z M 2.59375 -5.84375 "/></g></g></g><g fill="#ffffff" fill-opacity="1"><g transform="translate(77.79348, 79.433313)"><g><path d="M 6.484375 -5.875 L 2.59375 -5.875 L 2.59375 -4.40625 L 6.109375 -4.40625 L 6.109375 -2.953125 L 2.59375 -2.953125 L 2.59375 -1.46875 L 6.59375 -1.46875 L 6.59375 0 L 0.734375 0 L 0.734375 -7.34375 L 6.484375 -7.34375 Z M 6.484375 -5.875 "/></g></g></g><g fill="#ffffff" fill-opacity="1"><g transform="translate(85.381062, 79.433313)"><g><path d="M 0.734375 -7.34375 L 3.9375 -7.34375 C 4.875 -7.34375 5.597656 -7.117188 6.109375 -6.671875 C 6.628906 -6.222656 6.890625 -5.59375 6.890625 -4.78125 C 6.890625 -3.914062 6.628906 -3.242188 6.109375 -2.765625 C 5.597656 -2.296875 4.875 -2.0625 3.9375 -2.0625 L 2.59375 -2.0625 L 2.59375 0 L 0.734375 0 Z M 2.59375 -5.875 L 2.59375 -3.53125 L 3.84375 -3.53125 C 4.25 -3.53125 4.5625 -3.628906 4.78125 -3.828125 C 5.007812 -4.035156 5.125 -4.332031 5.125 -4.71875 C 5.125 -5.09375 5.007812 -5.378906 4.78125 -5.578125 C 4.5625 -5.773438 4.25 -5.875 3.84375 -5.875 Z M 2.59375 -5.875 "/></g></g></g><g fill="#ffffff" fill-opacity="1"><g transform="translate(93.031523, 79.433313)"><g><path d="M 5.15625 0 L 4.0625 -2.0625 L 2.59375 -2.0625 L 2.59375 0 L 0.734375 0 L 0.734375 -7.34375 L 4.015625 -7.34375 C 4.984375 -7.34375 5.734375 -7.117188 6.265625 -6.671875 C 6.796875 -6.222656 7.0625 -5.59375 7.0625 -4.78125 C 7.0625 -3.644531 6.617188 -2.859375 5.734375 -2.421875 L 7.28125 0 Z M 2.59375 -3.53125 L 4.015625 -3.53125 C 4.421875 -3.53125 4.734375 -3.628906 4.953125 -3.828125 C 5.179688 -4.035156 5.296875 -4.332031 5.296875 -4.71875 C 5.296875 -5.09375 5.179688 -5.378906 4.953125 -5.578125 C 4.734375 -5.773438 4.421875 -5.875 4.015625 -5.875 L 2.59375 -5.875 Z M 2.59375 -3.53125 "/></g></g></g><g fill="#ffffff" fill-opacity="1"><g transform="translate(101.143104, 79.433313)"><g><path d="M 6.484375 -5.875 L 2.59375 -5.875 L 2.59375 -4.40625 L 6.109375 -4.40625 L 6.109375 -2.953125 L 2.59375 -2.953125 L 2.59375 -1.46875 L 6.59375 -1.46875 L 6.59375 0 L 0.734375 0 L 0.734375 -7.34375 L 6.484375 -7.34375 Z M 6.484375 -5.875 "/></g></g></g><g fill="#ffffff" fill-opacity="1"><g transform="translate(108.730687, 79.433313)"><g><path d="M 8.796875 0 L 7.15625 0 L 7.140625 -4.765625 L 5.375 -0.734375 L 4.15625 -0.734375 L 2.40625 -4.765625 L 2.40625 0 L 0.734375 0 L 0.734375 -7.34375 L 2.78125 -7.34375 L 4.765625 -2.984375 L 6.765625 -7.34375 L 8.796875 -7.34375 Z M 8.796875 0 "/></g></g></g><g fill="#ffffff" fill-opacity="1"><g transform="translate(83.680347, 87.331814)"><g><path d="M 3.625 -3.328125 L 2.359375 -3.328125 L 2.359375 0 L 1.296875 0 L 1.296875 -3.328125 L 0.046875 -3.328125 L 0.046875 -4.1875 L 3.625 -4.1875 Z M 3.625 -3.328125 "/></g></g></g><g fill="#ffffff" fill-opacity="1"><g transform="translate(88.536854, 87.331814)"><g><path d="M 3.703125 -3.34375 L 1.484375 -3.34375 L 1.484375 -2.515625 L 3.484375 -2.515625 L 3.484375 -1.6875 L 1.484375 -1.6875 L 1.484375 -0.84375 L 3.765625 -0.84375 L 3.765625 0 L 0.421875 0 L 0.421875 -4.1875 L 3.703125 -4.1875 Z M 3.703125 -3.34375 "/></g></g></g><g fill="#ffffff" fill-opacity="1"><g transform="translate(93.7706, 87.331814)"><g><path d="M 2.375 -4.21875 C 2.6875 -4.21875 2.992188 -4.15625 3.296875 -4.03125 C 3.597656 -3.90625 3.851562 -3.734375 4.0625 -3.515625 L 3.453125 -2.78125 C 3.316406 -2.957031 3.15625 -3.09375 2.96875 -3.1875 C 2.78125 -3.28125 2.59375 -3.328125 2.40625 -3.328125 C 2.070312 -3.328125 1.789062 -3.210938 1.5625 -2.984375 C 1.34375 -2.753906 1.234375 -2.46875 1.234375 -2.125 C 1.234375 -1.769531 1.34375 -1.472656 1.5625 -1.234375 C 1.789062 -1.003906 2.070312 -0.890625 2.40625 -0.890625 C 2.570312 -0.890625 2.75 -0.929688 2.9375 -1.015625 C 3.132812 -1.109375 3.304688 -1.226562 3.453125 -1.375 L 4.078125 -0.71875 C 3.847656 -0.488281 3.578125 -0.300781 3.265625 -0.15625 C 2.960938 -0.0195312 2.65625 0.046875 2.34375 0.046875 C 1.71875 0.046875 1.191406 -0.15625 0.765625 -0.5625 C 0.347656 -0.976562 0.140625 -1.492188 0.140625 -2.109375 C 0.140625 -2.710938 0.351562 -3.210938 0.78125 -3.609375 C 1.207031 -4.015625 1.738281 -4.21875 2.375 -4.21875 Z M 2.375 -4.21875 "/></g></g></g><g fill="#ffffff" fill-opacity="1"><g transform="translate(99.112131, 87.331814)"><g><path d="M 4.28125 0 L 3.21875 0 L 3.21875 -1.625 L 1.484375 -1.625 L 1.484375 0 L 0.421875 0 L 0.421875 -4.1875 L 1.484375 -4.1875 L 1.484375 -2.46875 L 3.21875 -2.46875 L 3.21875 -4.1875 L 4.28125 -4.1875 Z M 4.28125 0 "/></g></g></g></svg>